<mxfile host="app.diagrams.net" agent="Mozilla/5.0 (Macintosh; Intel Mac OS X 10_15_7) AppleWebKit/537.36 (KHTML, like Gecko) Chrome/140.0.0.0 Safari/537.36" version="24.7.14">
  <diagram name="Page-1" id="edf60f1a-56cd-e834-aa8a-f176f3a09ee4">
    <mxGraphModel dx="1444" dy="1826" grid="1" gridSize="10" guides="1" tooltips="1" connect="1" arrows="1" fold="1" page="1" pageScale="1" pageWidth="1100" pageHeight="850" background="none" math="0" shadow="0">
      <root>
        <mxCell id="0" />
        <mxCell id="1" parent="0" />
        <mxCell id="0BhQRku9kcQ7Qq6cpFIh-1" value="screen" style="rounded=0;whiteSpace=wrap;html=1;" vertex="1" parent="1">
          <mxGeometry x="70" y="-740" width="120" height="60" as="geometry" />
        </mxCell>
        <mxCell id="0BhQRku9kcQ7Qq6cpFIh-2" value="transition" style="rhombus;whiteSpace=wrap;html=1;" vertex="1" parent="1">
          <mxGeometry x="220" y="-740" width="120" height="60" as="geometry" />
        </mxCell>
        <mxCell id="0BhQRku9kcQ7Qq6cpFIh-3" value="Something Journey" style="text;html=1;align=center;verticalAlign=middle;whiteSpace=wrap;rounded=0;" vertex="1" parent="1">
          <mxGeometry x="70" y="-820" width="120" height="60" as="geometry" />
        </mxCell>
      </root>
    </mxGraphModel>
  </diagram>
</mxfile>
